<?xml version="1.0" encoding="UTF-8" standalone="no"?>
<!-- Created with Inkscape (http://www.inkscape.org/) -->

<svg
   xmlns:dc="http://purl.org/dc/elements/1.1/"
   xmlns:cc="http://creativecommons.org/ns#"
   xmlns:rdf="http://www.w3.org/1999/02/22-rdf-syntax-ns#"
   xmlns:svg="http://www.w3.org/2000/svg"
   xmlns="http://www.w3.org/2000/svg"
   xmlns:xlink="http://www.w3.org/1999/xlink"
   xmlns:sodipodi="http://sodipodi.sourceforge.net/DTD/sodipodi-0.dtd"
   xmlns:inkscape="http://www.inkscape.org/namespaces/inkscape"
   width="200mm"
   height="200mm"
   viewBox="0 0 200 200"
   version="1.1"
   id="svg8"
   inkscape:version="0.92.4 (f8dce91, 2019-08-02)"
   sodipodi:docname="tulpa.svg"
   inkscape:export-filename="/home/fraemisch/tulpa.png"
   inkscape:export-xdpi="152.39999"
   inkscape:export-ydpi="152.39999">
  <defs
     id="defs2">
    <linearGradient
       inkscape:collect="always"
       id="linearGradient846">
      <stop
         style="stop-color:#a5a5a5;stop-opacity:1;"
         offset="0"
         id="stop842" />
      <stop
         style="stop-color:#a5a5a5;stop-opacity:0;"
         offset="1"
         id="stop844" />
    </linearGradient>
    <radialGradient
       inkscape:collect="always"
       xlink:href="#linearGradient846"
       id="radialGradient848"
       cx="131.34357"
       cy="189.11267"
       fx="131.34357"
       fy="189.11267"
       r="52.319815"
       gradientTransform="matrix(1.2022818,-0.00361205,0.00428232,1.4253831,-27.378252,-79.970922)"
       gradientUnits="userSpaceOnUse" />
  </defs>
  <sodipodi:namedview
     id="base"
     pagecolor="#ffffff"
     bordercolor="#666666"
     borderopacity="1.0"
     inkscape:pageopacity="0.0"
     inkscape:pageshadow="2"
     inkscape:zoom="0.7"
     inkscape:cx="55.999096"
     inkscape:cy="221.04052"
     inkscape:document-units="mm"
     inkscape:current-layer="layer1"
     showgrid="false"
     fit-margin-top="0"
     fit-margin-left="0"
     fit-margin-right="0"
     fit-margin-bottom="0"
     inkscape:window-width="1916"
     inkscape:window-height="1164"
     inkscape:window-x="0"
     inkscape:window-y="16"
     inkscape:window-maximized="0"
     inkscape:lockguides="true"
     showguides="true"
     inkscape:guide-bbox="true" />
  <metadata
     id="metadata5">
    <rdf:RDF>
      <cc:Work
         rdf:about="">
        <dc:format>image/svg+xml</dc:format>
        <dc:type
           rdf:resource="http://purl.org/dc/dcmitype/StillImage" />
        <dc:title />
      </cc:Work>
    </rdf:RDF>
  </metadata>
  <g
     inkscape:label="Layer 1"
     inkscape:groupmode="layer"
     id="layer1"
     transform="translate(-35.318729,-83.157814)">
    <rect
       style="opacity:1;fill:#000000;fill-opacity:1;stroke:none;stroke-width:1.21250689;stroke-linecap:round;stroke-linejoin:round;stroke-miterlimit:4;stroke-dasharray:none;stroke-opacity:1;paint-order:stroke fill markers"
       id="rect4518-5-7"
       width="200"
       height="200"
       x="35.318729"
       y="83.157814" />
    <path
       style="opacity:0.5;fill:url(#radialGradient848);fill-opacity:1;stroke:none;stroke-width:1.85669577;stroke-linecap:round;stroke-linejoin:round;stroke-miterlimit:4;stroke-dasharray:none;stroke-opacity:1;paint-order:stroke fill markers"
       d="m 182.42016,201.28148 c -5.61266,43.3869 -21.63504,62.40731 -52.93892,62.40731 -31.30388,0 -42.81369,-21.69395 -48.92987,-64.2782 -6.05508,-42.15881 5.07292,-83.95711 48.12806,-84.85797 47.60672,-0.99609 59.20414,44.49568 53.74073,86.72886 z"
       id="path4520-7-0"
       inkscape:connector-curvature="0"
       sodipodi:nodetypes="sssss" />
    <path
       style="opacity:1;fill:#000000;fill-opacity:1;stroke:none;stroke-width:1.6782006;stroke-linecap:round;stroke-linejoin:round;stroke-miterlimit:4;stroke-dasharray:none;stroke-opacity:1;paint-order:stroke fill markers"
       d="m 110.93005,234.70378 c 16.38738,-3.71625 20.24365,-0.68708 22.03857,-0.68006 1.86098,0.007 5.50282,-3.1415 20.09005,-0.13679 -14.38898,9.76389 -28.2983,7.65743 -42.12862,0.81685 z"
       id="path4522-6-3-0"
       inkscape:connector-curvature="0"
       sodipodi:nodetypes="cscc" />
    <path
       style="fill:#000000;stroke:#000000;stroke-width:0.2518459px;stroke-linecap:butt;stroke-linejoin:miter;stroke-opacity:1"
       d="m 86.58491,102.72377 28.06282,50.36919 6.11627,-8.63472 2.87823,41.37469 14.39119,15.47053 3.23803,-3.23802 2.15867,18.70855 11.66448,6.35205 13.10321,27.23949 c 9.84641,-2.85741 13.05571,-4.00134 2.14109,-5.63455 l -13.50441,-22.17731 -12.34559,-6.90257 -2.5673,-19.72628 -3.87046,5.07153 -14.16121,-15.26334 -2.77646,-43.5927 -6.52743,8.77603 c 0,0 -14.44261,-35.26607 -15.16217,-36.70519 -0.71956,-1.43912 -12.83896,-11.48738 -12.83896,-11.48738 z"
       id="path4621-5"
       inkscape:connector-curvature="0"
       sodipodi:nodetypes="cccccccccccccccccsc" />
    <g
       id="g4633-1-0"
       transform="matrix(1.4731544,0,0,-1.6816297,-127.48935,431.31977)">
      <path
         sodipodi:nodetypes="cscsc"
         inkscape:connector-curvature="0"
         id="path4522-3-3-0-3"
         d="m 166.75989,145.21826 c 10e-6,1.11078 -2.59833,-0.0884 -6.15282,-0.0884 -3.55448,0 -6.71911,1.19917 -6.7191,0.0884 -1e-5,-1.11078 2.88147,-2.01124 6.43596,-2.01124 3.55449,0 6.43597,0.90046 6.43596,2.01124 z"
         style="opacity:1;fill:#000000;fill-opacity:1;stroke:none;stroke-width:1.69261622;stroke-linecap:round;stroke-linejoin:round;stroke-miterlimit:4;stroke-dasharray:none;stroke-opacity:1;paint-order:stroke fill markers" />
      <ellipse
         ry="17.510893"
         rx="0.71403003"
         cy="144.73804"
         cx="160.11346"
         id="path4546-7-89-3-1"
         style="opacity:1;fill:#000000;fill-opacity:1;stroke:none;stroke-width:1.29634404;stroke-linecap:round;stroke-linejoin:round;stroke-miterlimit:4;stroke-dasharray:none;stroke-opacity:1;paint-order:stroke fill markers" />
    </g>
    <g
       id="g4633-1-6-1"
       transform="matrix(-1.4731544,0,0,-1.6816297,391.75962,430.76031)">
      <path
         sodipodi:nodetypes="cscsc"
         inkscape:connector-curvature="0"
         id="path4522-3-3-0-0-7"
         d="m 166.75989,145.21826 c 10e-6,1.11078 -2.59833,-0.0884 -6.15282,-0.0884 -3.55448,0 -6.71911,1.19917 -6.7191,0.0884 -1e-5,-1.11078 2.88147,-2.01124 6.43596,-2.01124 3.55449,0 6.43597,0.90046 6.43596,2.01124 z"
         style="opacity:1;fill:#000000;fill-opacity:1;stroke:none;stroke-width:1.69261622;stroke-linecap:round;stroke-linejoin:round;stroke-miterlimit:4;stroke-dasharray:none;stroke-opacity:1;paint-order:stroke fill markers" />
      <ellipse
         ry="17.510893"
         rx="0.71403003"
         cy="144.73804"
         cx="160.11346"
         id="path4546-7-89-3-6-9"
         style="opacity:1;fill:#000000;fill-opacity:1;stroke:none;stroke-width:1.29634404;stroke-linecap:round;stroke-linejoin:round;stroke-miterlimit:4;stroke-dasharray:none;stroke-opacity:1;paint-order:stroke fill markers" />
    </g>
    <g
       transform="translate(4.9999998e-7,1.769149)"
       aria-label="tulpa"
       style="font-style:normal;font-variant:normal;font-weight:normal;font-stretch:normal;font-size:83.96531677px;line-height:1.25;font-family:SquareFont;-inkscape-font-specification:SquareFont;font-variant-ligatures:normal;font-variant-caps:normal;font-variant-numeric:normal;font-feature-settings:normal;text-align:start;letter-spacing:0px;word-spacing:0px;writing-mode:lr-tb;text-anchor:start;fill:#000000;fill-opacity:1;stroke:none;stroke-width:5.2478323;opacity:0.9"
       id="text4565-5-3-1">
      <path
         inkscape:connector-curvature="0"
         d="m 90.946338,168.58303 h -5.877572 v 31.57096 q 0,2.60292 0.839653,3.52654 0.839653,0.92362 3.358613,0.92362 h 1.595341 v 7.30498 h -2.183098 q -3.442578,0 -5.793607,-0.58775 -2.351029,-0.67173 -3.778439,-1.93121 -1.427411,-1.34344 -2.015168,-3.35861 -0.587757,-2.01517 -0.587757,-4.78602 v -32.66251 h -3.106717 v -6.96912 h 3.106717 v -15.28169 h 8.564462 v 15.28169 h 5.877572 z"
         style="font-style:normal;font-variant:normal;font-weight:normal;font-stretch:normal;font-family:'Kenyan Coffee';-inkscape-font-specification:'Kenyan Coffee';fill:#ffffff;stroke-width:5.2478323"
         id="path8480-0" />
      <path
         inkscape:connector-curvature="0"
         d="m 112.12528,161.61391 h 8.64843 v 50.29522 h -8.06067 v -3.27464 q -1.00759,1.9312 -2.85483,2.85482 -1.76327,0.83965 -5.20585,0.83965 -2.43499,0 -4.1143,-0.50379 -1.595337,-0.50379 -2.60292,-1.67931 -0.923619,-1.17551 -1.343445,-3.10671 -0.419827,-2.01517 -0.419827,-4.95396 v -40.47128 h 8.564462 v 39.63163 q 0,1.76327 0.67172,2.60292 0.67173,0.83966 2.60293,0.83966 1.9312,0 2.77085,-0.67173 0.83966,-0.75568 1.34345,-1.9312 z"
         style="font-style:normal;font-variant:normal;font-weight:normal;font-stretch:normal;font-family:'Kenyan Coffee';-inkscape-font-specification:'Kenyan Coffee';fill:#ffffff;stroke-width:5.2478323"
         id="path8482-3" />
      <path
         inkscape:connector-curvature="0"
         d="m 136.72318,224.79434 h -8.56447 l 0,-89.80114 h 8.56447 z"
         style="font-style:normal;font-variant:normal;font-weight:normal;font-stretch:normal;font-family:'Kenyan Coffee';-inkscape-font-specification:'Kenyan Coffee';fill:#ffffff;stroke-width:5.2478323"
         id="path8484-5"
         sodipodi:nodetypes="ccccc" />
      <path
         inkscape:connector-curvature="0"
         d="m 167.9163,202.08519 q 0,2.93879 -0.33587,4.95396 -0.33586,1.9312 -1.25948,3.10671 -0.83965,1.17552 -2.35102,1.67931 -1.51138,0.50379 -3.86241,0.50379 -2.77085,0 -4.61809,-0.75569 -1.84724,-0.75569 -3.02275,-2.68689 v 15.86945 h -8.56447 v -63.14192 h 7.97671 v 3.69447 q 1.17551,-2.43499 3.10672,-3.27464 2.01516,-0.83966 4.86998,-0.83966 2.435,0 4.03034,0.50379 1.59534,0.5038 2.43499,1.76328 0.92362,1.17551 1.25948,3.19068 0.33587,1.9312 0.33587,4.78602 z m -15.70152,0 q 0.67172,1.42741 1.51138,2.01517 0.92362,0.58776 2.60292,0.58776 1.9312,0 2.60293,-0.83966 0.67172,-0.92361 0.67172,-3.35861 v -27.37269 q 0,-2.435 -0.67172,-3.27465 -0.67173,-0.92362 -2.60293,-0.92362 -1.6793,0 -2.60292,0.58776 -0.83966,0.58776 -1.51138,2.01517 z"
         style="font-style:normal;font-variant:normal;font-weight:normal;font-stretch:normal;font-family:'Kenyan Coffee';-inkscape-font-specification:'Kenyan Coffee';fill:#ffffff;stroke-width:5.2478323"
         id="path8486-9" />
      <path
         inkscape:connector-curvature="0"
         d="m 185.3168,212.74879 q -3.52655,0 -5.79361,-0.33586 -2.1831,-0.2519 -3.44258,-1.25948 -1.25948,-1.00759 -1.76327,-2.93879 -0.41983,-1.9312 -0.41983,-5.20585 v -12.17497 q 0,-4.53413 1.67931,-6.63326 1.76327,-2.09913 5.96154,-2.09913 h 1.59534 q 2.85482,0 4.03033,0.25189 1.17552,0.16793 1.76328,0.50379 v -10.41169 q 0,-2.6869 -0.67173,-3.52655 -0.67172,-0.83965 -2.85482,-0.83965 -2.43499,0 -3.10671,0.92362 -0.58776,0.83965 -0.58776,3.44258 v 4.95395 h -7.80878 v -5.96154 q 0,-3.52654 0.41983,-5.62567 0.50379,-2.1831 1.76327,-3.27465 1.25948,-1.09155 3.44258,-1.42741 2.1831,-0.33586 5.70964,-0.33586 3.69448,0 6.04551,0.33586 2.35102,0.33586 3.6105,1.51137 1.34345,1.09155 1.84724,3.19069 0.50379,2.09913 0.50379,5.62567 v 40.47128 q -1.51137,0.41983 -4.70205,0.58776 -3.10672,0.2519 -7.22102,0.2519 z m 0.50379,-7.05309 q 2.43499,0 3.10672,-0.16793 v -16.4572 q -0.58776,-0.33586 -1.42741,-0.41983 -0.83966,-0.084 -1.76328,-0.084 -1.42741,0 -2.26706,0.16793 -0.75569,0.16793 -1.17551,0.67172 -0.41983,0.50379 -0.5038,1.42741 -0.084,0.83965 -0.084,2.1831 v 7.89274 q 0,1.59534 0.084,2.51896 0.084,0.92362 0.5038,1.42741 0.41982,0.50379 1.25948,0.67172 0.83965,0.16793 2.26706,0.16793 z"
         style="font-style:normal;font-variant:normal;font-weight:normal;font-stretch:normal;font-family:'Kenyan Coffee';-inkscape-font-specification:'Kenyan Coffee';fill:#ffffff;stroke-width:5.2478323"
         id="path8488-4" />
    </g>
    <path
       style="fill:#000000;stroke:#000000;stroke-width:0.08911669px;stroke-linecap:butt;stroke-linejoin:miter;stroke-opacity:1"
       d="m 88.78011,239.57789 3.33079,-5.40129 5.31127,-1.57538 3.60086,-8.68707 -4.36604,8.19196 -6.12146,1.39533 -4.45606,4.86116 z"
       id="path4819-8"
       inkscape:connector-curvature="0" />
    <path
       style="fill:#000000;stroke:#000000;stroke-width:0.16331604px;stroke-linecap:butt;stroke-linejoin:miter;stroke-opacity:1"
       d="m 154.06112,111.97903 5.36609,24.73072 6.29933,1.16654 4.19956,10.14893 1.63316,-2.79971 -3.26633,25.5473 4.19957,-27.64707 -2.5664,3.49962 -4.0327,-9.43749 -5.85658,-0.98985 -3.62942,-19.83813 z"
       id="path4821-0"
       inkscape:connector-curvature="0"
       sodipodi:nodetypes="cccccccccccc" />
  </g>
</svg>
